# xmcd CD database file
#
# Track frame offsets:
#	150
#	22102
#	42785
#
# Disc length: 860 seconds
#
# Revision: 0
# Processed by: cddbd v1.5.1PL0 Copyright (c) Steve Scherf et al.
# Submitted via: CDex 1.51
#
DISCID=1d035a03
DTITLE=石井明美 - バラード
DYEAR=1997
DGENRE=JPop
TTITLE0=バラード
TTITLE1=after rain
TTITLE2=バラード(オリジナル・カラオケ)
EXTD=YEAR: 1997
EXTT0=
EXTT1=
EXTT2=
PLAYORDER=
